HIERARCHY
ROOT ui
{
	 OFFSET 0 0 0
	 CHANNELS 3 XPosition YPosition Z Position
	 EndSite
	 {
	 OFFSET 0 -1 0
	 }
}
ROOT li
{
	 OFFSET 0 0 0
	 CHANNELS 3 XPosition YPosition Z Position
	 EndSite
	 {
	 OFFSET 0 -1 0
	 }
}
ROOT ul
{
	 OFFSET 0 0 0
	 CHANNELS 3 XPosition YPosition Z Position
	 EndSite
	 {
	 OFFSET 0 -1 0
	 }
}
ROOT ll
{
	 OFFSET 0 0 0
	 CHANNELS 3 XPosition YPosition Z Position
	 EndSite
	 {
	 OFFSET 0 -1 0
	 }
}
ROOT tt
{
	 OFFSET 0 0 0
	 CHANNELS 3 XPosition YPosition Z Position
	 EndSite
	 {
	 OFFSET 0 -1 0
	 }
}
ROOT tb
{
	 OFFSET 0 0 0
	 CHANNELS 3 XPosition YPosition Z Position
	 EndSite
	 {
	 OFFSET 0 -1 0
	 }
}
ROOT td
{
	 OFFSET 0 0 0
	 CHANNELS 3 XPosition YPosition Z Position
	 EndSite
	 {
	 OFFSET 0 -1 0
	 }
}
ROOT v
{
	 OFFSET 0 0 0
	 CHANNELS 3 XPosition YPosition Z Position
	 EndSite
	 {
	 OFFSET 0 -1 0
	 }
}
ROOT bn
{
	 OFFSET 0 0 0
	 CHANNELS 3 XPosition YPosition Z Position
	 EndSite
	 {
	 OFFSET 0 -1 0
	 }
}
MOTION
Frames: 32
Frame Time: 0.002
-0.004039181232452393	-0.004313169002532959	0		0.552899658203125	-2.620444580078125	0		-0.786201904296875	0.2641015625	0		-0.35791897583007815	-2.59866259765625	0		2.066794677734375	-1.33462744140625	0		3.61085791015625	-0.6851709594726563	0		4.90811328125	-0.48208978271484376	0		5.9549423828125	0.5207266845703125	0		-0.2296869354248047	5.8964501953125	0		
-0.004192130088806152	-0.0041100759506225585	0		0.5538399047851562	-2.618237060546875	0		-0.8064146728515625	0.25949765014648435	0		-0.429557373046875	-2.556700439453125	0		2.025744873046875	-1.3279287109375	0		3.62788330078125	-0.670051513671875	0		4.91794091796875	-0.48485867309570313	0		5.96376416015625	0.5199971313476562	0		-0.23099122619628906	5.89765771484375	0		
0.002722315073013306	0.002973910093307495	0		0.559827392578125	-2.611126953125	0		-0.7765302124023438	0.26431365966796877	0		-0.3544153137207031	-2.535355712890625	0		2.079576171875	-1.33228955078125	0		3.614635986328125	-0.6796515502929688	0		4.91189111328125	-0.4754985961914063	0		5.96358935546875	0.5203228149414062	0		-0.23131584167480468	5.897810546875	0		
-4.7543200850486757E-4	1.250230073928833E-4	0		0.557712158203125	-2.61297119140625	0		-0.776703369140625	0.26441119384765627	0		-0.36220196533203125	-2.506162841796875	0		2.0216099853515623	-1.3164962158203124	0		3.63756201171875	-0.6726786499023437	0		4.91173828125	-0.47524453735351563	0		5.96831298828125	0.5115530395507812	0		-0.2316439666748047	5.89792333984375	0		
-0.00468806791305542	-0.0037500970363616945	0		0.5476961669921875	-2.6047685546875	0		-0.709927001953125	0.259760986328125	0		-0.3499562683105469	-2.4732197265625	0		2.0754287109375	-1.3209346923828125	0		3.608421630859375	-0.6711925659179687	0		4.911580078125	-0.47503314208984376	0		5.96304443359375	0.5038458251953125	0		-0.268010009765625	5.8943818359375	0		
-0.00486113977432251	-0.003701020956039429	0		0.5475866088867187	-2.604705810546875	0		-0.8171004638671875	0.26092755126953127	0		-0.4048750915527344	-2.4545966796875	0		2.01947119140625	-1.303241943359375	0		3.60235009765625	-0.6629921264648437	0		4.91141845703125	-0.47486407470703124	0		5.94685986328125	0.5042102355957031	0		-0.26733770751953123	5.8934140625	0		
-9.92537021636963E-4	2.7686399221420286E-4	0		0.5594061889648437	-2.610800048828125	0		-0.7772396850585938	0.264506591796875	0		-0.35888079833984377	-2.444072509765625	0		2.028283447265625	-1.3072718505859375	0		3.6531669921875	-0.665431884765625	0		4.91432958984375	-0.46776751708984377	0		5.9556748046875	0.5042664794921875	0		-0.23160072326660155	5.89704736328125	0		
0.005899566173553467	0.006199256896972656	0		0.5574655151367187	-2.593772216796875	0		-0.8034248046875	0.263762939453125	0		-0.4326199645996094	-2.407302978515625	0		2.0382852783203127	-1.2933424072265625	0		3.605286376953125	-0.63885888671875	0		4.90826318359375	-0.4586128540039062	0		5.94649462890625	0.5044735107421875	0		-0.23386448669433593	5.89906103515625	0		
0.005734425067901611	0.0061767520904541014	0		0.545417724609375	-2.586659423828125	0		-0.7115465698242187	0.2677564697265625	0		-0.3686434020996094	-2.39800830078125	0		2.041236328125	-1.284363525390625	0		3.6108466796875	-0.6658838500976563	0		4.91603125	-0.46563851928710936	0		5.94223681640625	0.49659158325195313	0		-0.23511619567871095	5.900044921875	0		
-0.005527132987976074	-0.003744947910308838	0		0.553179443359375	-2.59777392578125	0		-0.8186904907226562	0.2698357543945312	0		-0.4346905212402344	-2.390356689453125	0		2.0441387939453124	-1.2804061279296874	0		3.604983642578125	-0.6388118286132812	0		4.8989873046875	-0.45543212890625	0		5.93307421875	0.4967280578613281	0		-0.25046726989746093	5.889162109375	0		
-0.005673561096191406	-0.003795789957046509	0		0.5451757202148437	-2.586735595703125	0		-0.7778945922851562	0.2643454284667969	0		-0.3707108459472656	-2.3810859375	0		2.0250169677734373	-1.279236083984375	0		3.639736572265625	-0.6491934814453125	0		4.90475	-0.46449545288085936	0		5.93782763671875	0.4876858215332031	0		-0.26962030029296874	5.89430859375	0		
-0.0058072152137756345	-0.0038560199737548827	0		0.5030519409179688	-2.587350341796875	0		-0.8400371704101562	0.2639318542480469	0		-0.43270880126953126	-2.369497314453125	0		2.027923583984375	-1.2763138427734375	0		3.598799072265625	-0.630798095703125	0		4.89178857421875	-0.44838555908203126	0		5.93377490234375	0.495708740234375	0		-0.23573393249511718	5.899888671875	0		
0.0011487460136413573	0.003004257917404175	0		0.5579100952148438	-2.590991943359375	0		-0.7690647583007812	0.27211599731445313	0		-0.42372280883789065	-2.360659912109375	0		2.0289898681640626	-1.2593831787109375	0		3.604599609375	-0.6389125366210937	0		4.8926943359375	-0.4464430236816406	0		5.92565625	0.49575	0		-0.2358739471435547	5.89982177734375	0		
-0.002894705057144165	0.007978984832763672	0		0.5509217529296875	-2.580985595703125	0		-0.7691612548828125	0.27204824829101565	0		-0.39773419189453124	-2.3530009765625	0		2.040957275390625	-1.2535748291015625	0		3.61664013671875	-0.6261031494140625	0		4.88750390625	-0.4554525146484375	0		5.9204755859375	0.48774142456054687	0		-0.2359756164550781	5.89975439453125	0		
0.01594983196258545	-2.84947007894516E-4	0		0.5638670043945313	-2.57918798828125	0		-0.778314697265625	0.26408010864257814	0		-0.41983914184570315	-2.35583349609375	0		2.0120860595703123	-1.23433935546875	0		3.59851708984375	-0.63098486328125	0		4.89252734375	-0.4465791320800781	0		5.91631201171875	0.4787085266113281	0		-0.23801402282714842	5.90171142578125	0		
-0.006131173133850098	-0.004112667083740235	0		0.5388695678710937	-2.573987060546875	0		-0.8143516845703125	0.2644028625488281	0		-0.41988955688476565	-2.355890869140625	0		2.0310289306640623	-1.235607177734375	0		3.59255859375	-0.6229971313476562	0		4.87559130859375	-0.4364814758300781	0		5.9041904296875	0.4707501220703125	0		-0.3041614990234375	5.88934814453125	0		
0.015902767181396483	-3.955979943275452E-4	0		0.5507716064453125	-2.581167724609375	0		-0.8084098510742187	0.25929409790039065	0		-0.4827820129394531	-2.343277099609375	0		2.02013037109375	-1.2245565185546874	0		3.608430908203125	-0.634239501953125	0		4.880455078125	-0.44861636352539064	0		5.91725927734375	0.4775232849121094	0		-0.2539750213623047	5.903771484375	0		
0.008036417961120606	0.009647649765014648	0		0.530906494140625	-2.56900244140625	0		-0.7952542114257812	0.27112258911132814	0		-0.4397119445800781	-2.337766845703125	0		2.0162540283203123	-1.2145712890625	0		3.584802734375	-0.6010575561523438	0		4.87560595703125	-0.43664349365234373	0		5.91320703125	0.469478515625	0		-0.23594334411621093	5.8995439453125	0		
0.028023553848266602	0.002410209894180298	0		0.516232177734375	-2.541877197265625	0		-0.7782647094726562	0.26392355346679686	0		-0.441690673828125	-2.339768798828125	0		2.0103798828125	-1.2075523681640625	0		3.569670654296875	-0.6189556274414062	0		4.86975927734375	-0.42764883422851563	0		5.9042734375	0.46949655151367187	0		-0.23781044006347657	5.9015400390625	0		
-0.002830053091049194	0.007724555969238281	0		0.5163040161132812	-2.541893310546875	0		-0.814168701171875	0.26429730224609377	0		-0.4076507873535156	-2.343135986328125	0		1.997610595703125	-1.193444091796875	0		3.577841552734375	-0.611080810546875	0		4.86862646484375	-0.4486877136230469	0		5.89128515625	0.4615753479003906	0		-0.23767193603515624	5.90152978515625	0		
-0.005841858863830566	-0.004240302085876465	0		0.516402587890625	-2.541893798828125	0		-0.8500504150390625	0.2646852111816406	0		-0.44353839111328125	-2.341750732421875	0		1.9968656005859375	-1.179444091796875	0		3.577952392578125	-0.6111006469726562	0		4.8558974609375	-0.4335793151855469	0		5.8922236328125	0.44453131103515625	0		-0.23554122924804688	5.89951318359375	0		
-0.005712893009185791	-0.00422307014465332	0		0.518543212890625	-2.53989990234375	0		-0.8088804931640625	0.2682724304199219	0		-0.42744003295898436	-2.343900634765625	0		1.984075439453125	-1.1712974853515625	0		3.566248779296875	-0.5949708251953125	0		4.85602490234375	-0.43357998657226565	0		5.89235400390625	0.44452682495117185	0		-0.26945196533203125	5.893890625	0		
-0.0024507319927215576	0.00777570104598999	0		0.52475244140625	-2.532932373046875	0		-0.804702880859375	0.27226107788085935	0		-0.467143798828125	-2.328447998046875	0		1.9735389404296875	-1.14015185546875	0		3.54922705078125	-0.6097593383789063	0		4.8461923828125	-0.4304434509277344	0		5.88857421875	0.4525997314453125	0		-0.10201945495605469	5.92115673828125	0		
-0.005441494941711426	-0.0041473498344421385	0		0.5228785400390625	-2.5348642578125	0		-0.8136522827148438	0.26439752197265626	0		-0.4200846557617188	-2.336901123046875	0		1.9697855224609375	-1.1300567626953124	0		3.57559619140625	-0.5879744262695312	0		4.84326708984375	-0.4363450622558594	0		5.8846240234375	0.4447134399414063	0		-0.2351456298828125	5.89960595703125	0		
-0.0012690939903259278	-1.32191002368927E-4	0		0.5230323486328124	-2.5348017578125	0		-0.8135242919921875	0.2644476318359375	0		-0.462793212890625	-2.323394775390625	0		1.990093994140625	-1.1141927490234376	0		3.52278759765625	-0.5823251953125	0		4.82060302734375	-0.41700128173828127	0		5.87575048828125	0.4449202575683594	0		-0.10281336212158203	5.92326806640625	0		
-0.009137556076049805	0.0010220110416412354	0		0.5231871337890625	-2.534724609375	0		-0.8134072875976562	0.26450668334960936	0		-0.4177596130371094	-2.33480419921875	0		1.964599609375	-1.078823974609375	0		3.5488515625	-0.5884811401367187	0		4.8284658203125	-0.4419490661621094	0		5.86767626953125	0.42715484619140626	0		-0.26909002685546873	5.89408642578125	0		
-0.0010412240028381348	1.9747000187635422E-5	0		0.4714134521484375	-2.527087646484375	0		-0.8452606201171875	0.2689112243652344	0		-0.4335701904296875	-2.330561279296875	0		1.9748717041015624	-1.06481494140625	0		3.540968994140625	-0.5882554931640624	0		4.821654296875	-0.4347128601074219	0		5.87269189453125	0.41928314208984374	0		-0.267102783203125	5.89214306640625	0		
0.0061129980087280275	0.0060392022132873535	0		0.532591552734375	-2.5236259765625	0		-0.8041343383789062	0.2725579528808594	0		-0.4253404235839844	-2.321560546875	0		1.9334056396484376	-1.0242457275390624	0		3.538428955078125	-0.5540656127929687	0		4.81788037109375	-0.42248699951171875	0		5.86785986328125	0.42753961181640626	0		-0.26811212158203124	5.89324169921875	0		
0.0021554880142211916	0.0031848950386047362	0		0.5037177429199219	-2.523207763671875	0		-0.8140654907226562	0.2727500305175781	0		-0.421167724609375	-2.3165078125	0		1.955865478515625	-0.989335693359375	0		3.4933486328125	-0.5694185791015625	0		4.798837890625	-0.4340868225097656	0		5.85976806640625	0.4128458557128906	0		-0.2350854187011719	5.89999365234375	0		
-0.0048639440536499025	-0.003629586935043335	0		0.52876953125	-2.5283466796875	0		-0.8180487670898438	0.2698871154785156	0		-0.45301251220703126	-2.3110703125	0		1.923171142578125	-0.9668396606445312	0		3.52555859375	-0.5555699462890625	0		4.795837890625	-0.43984429931640623	0		5.85571923828125	0.40412088012695313	0		-0.24927830505371093	5.88824755859375	0		
-0.004833573818206787	-0.0035115950107574463	0		0.5039051513671875	-2.52295703125	0		-0.8180240478515625	0.26998846435546875	0		-0.40805209350585936	-2.322430419921875	0		1.9135452880859376	-0.9355795288085937	0		3.4966123046875	-0.5540771484375	0		4.795876953125	-0.4396279602050781	0		5.84674169921875	0.40445281982421877	0		-0.234254638671875	5.89920361328125	0		
-0.008776148796081544	0.0016519949436187744	0		0.53295849609375	-2.523126953125	0		-0.8399918823242187	0.27332354736328124	0		-0.4619565734863281	-2.317754150390625	0		1.8819454345703126	-0.8990880737304687	0		3.50295068359375	-0.5229498901367188	0		4.79589111328125	-0.43941091918945313	0		5.847728515625	0.4036802673339844	0		-0.23436614990234375	5.8993212890625	0		
